<svg width="344" height="420" viewBox="0 0 344 420" fill="none" xmlns="http://www.w3.org/2000/svg">
<g filter="url(#filter0_f_727_161)">
<ellipse cx="172" cy="398.119" rx="55.6667" ry="19.881" fill="black" fill-opacity="0.15"/>
</g>
<g filter="url(#filter1_d_727_161)">
<path fill-rule="evenodd" clip-rule="evenodd" d="M172 4.47607C264.232 4.47607 339 79.2445 339 171.476C339 242.193 295.045 302.644 232.966 326.998L181.512 397.329C180.439 398.801 179.015 400.003 177.359 400.832C175.704 401.662 173.866 402.095 172 402.095C170.134 402.095 168.296 401.662 166.641 400.832C164.985 400.003 163.561 398.801 162.488 397.329L111.034 326.998C48.9548 302.644 5 242.193 5 171.476C5 79.2445 79.7685 4.47607 172 4.47607Z" fill="#4E64A6"/>
</g>
<path d="M307.191 171.476C307.191 96.8125 246.664 36.2856 172 36.2856C97.3364 36.2856 36.8096 96.8125 36.8096 171.476C36.8096 246.14 97.3364 306.667 172 306.667C246.664 306.667 307.191 246.14 307.191 171.476Z" fill="#273273"/>
<path fill-rule="evenodd" clip-rule="evenodd" d="M174.894 98.7368C174.894 94.0311 171.079 90.2163 166.374 90.2163C161.668 90.2163 157.853 94.0311 157.853 98.7368V112.01C157.853 116.715 161.668 120.53 166.374 120.53C171.079 120.53 174.894 116.715 174.894 112.01V98.7368ZM204.837 130.974C180.09 129.482 154.622 129.482 129.875 130.974C121.653 131.47 114.814 137.932 114.405 146.435C114.054 153.72 114.077 161.253 114.1 168.782C114.105 170.645 114.111 172.507 114.111 174.365C114.111 177.527 114.246 180.642 114.466 183.7C115.862 203.086 132.226 218.266 151.229 219.658C156.485 220.043 161.872 220.306 167.356 220.306C172.84 220.306 178.227 220.043 183.482 219.658C196.623 218.695 208.502 211.139 215.042 200.158C217.131 200.104 219.244 200.012 221.348 199.897C236.634 199.06 252.253 187.073 252.253 169.583C252.253 152.077 236.614 140.137 221.353 139.291C220.286 139.232 219.222 139.178 218.165 139.132C215.453 134.454 210.469 131.314 204.837 130.974ZM220.417 182.881L220.302 182.888C220.488 180.091 220.601 177.247 220.601 174.365C220.601 172.508 220.606 170.647 220.612 168.786V168.784V168.783V168.781C220.625 164.613 220.637 160.444 220.586 156.317C229.027 156.869 235.212 163.303 235.212 169.583C235.212 175.922 228.926 182.416 220.417 182.881ZM237.5 240.311C237.5 245.017 232.707 248.832 228 248.832H110.075C105.369 248.832 101.555 245.017 101.555 240.311C101.555 235.606 105.369 231.791 110.075 231.791H228C232.707 231.791 237.5 235.606 237.5 240.311ZM131.895 90.2163C136.601 90.2163 140.416 94.0311 140.416 98.7368V112.01C140.416 116.715 136.601 120.53 131.895 120.53C127.189 120.53 123.374 116.715 123.374 112.01V98.7368C123.374 94.0311 127.189 90.2163 131.895 90.2163ZM209.373 98.7368C209.373 94.0311 205.558 90.2163 200.853 90.2163C196.147 90.2163 192.332 94.0311 192.332 98.7368V112.01C192.332 116.715 196.147 120.53 200.853 120.53C205.558 120.53 209.373 116.715 209.373 112.01V98.7368Z" fill="white"/>
<defs>
<filter id="filter0_f_727_161" x="114.333" y="376.238" width="115.333" height="43.762" filterUnits="userSpaceOnUse" color-interpolation-filters="sRGB">
<feFlood flood-opacity="0" result="BackgroundImageFix"/>
<feBlend mode="normal" in="SourceGraphic" in2="BackgroundImageFix" result="shape"/>
<feGaussianBlur stdDeviation="1" result="effect1_foregroundBlur_727_161"/>
</filter>
<filter id="filter1_d_727_161" x="0" y="0.476074" width="344" height="407.619" filterUnits="userSpaceOnUse" color-interpolation-filters="sRGB">
<feFlood flood-opacity="0" result="BackgroundImageFix"/>
<feColorMatrix in="SourceAlpha" type="matrix" values="0 0 0 0 0 0 0 0 0 0 0 0 0 0 0 0 0 0 127 0" result="hardAlpha"/>
<feOffset dy="1"/>
<feGaussianBlur stdDeviation="2.5"/>
<feComposite in2="hardAlpha" operator="out"/>
<feColorMatrix type="matrix" values="0 0 0 0 0 0 0 0 0 0 0 0 0 0 0 0 0 0 0.1 0"/>
<feBlend mode="normal" in2="BackgroundImageFix" result="effect1_dropShadow_727_161"/>
<feBlend mode="normal" in="SourceGraphic" in2="effect1_dropShadow_727_161" result="shape"/>
</filter>
</defs>
</svg>
