<svg width="344" height="420" viewBox="0 0 344 420" fill="none" xmlns="http://www.w3.org/2000/svg">
<g filter="url(#filter0_f_727_167)">
<ellipse cx="172" cy="397.643" rx="55.6667" ry="19.881" fill="black" fill-opacity="0.15"/>
</g>
<g filter="url(#filter1_d_727_167)">
<path fill-rule="evenodd" clip-rule="evenodd" d="M172 4C264.232 4 339 78.7685 339 171C339 241.717 295.045 302.168 232.966 326.522L181.512 396.853C180.439 398.325 179.015 399.527 177.359 400.356C175.704 401.186 173.866 401.619 172 401.619C170.134 401.619 168.296 401.186 166.641 400.356C164.985 399.527 163.561 398.325 162.488 396.853L111.034 326.522C48.9548 302.168 5 241.717 5 171C5 78.7685 79.7685 4 172 4Z" fill="#4E64A6"/>
</g>
<path d="M307.191 171C307.191 96.3364 246.664 35.8096 172 35.8096C97.3364 35.8096 36.8096 96.3364 36.8096 171C36.8096 245.664 97.3364 306.191 172 306.191C246.664 306.191 307.191 245.664 307.191 171Z" fill="#273273"/>
<path d="M241.602 130.167C240.056 128.993 238.062 128.428 236.059 128.597C234.056 128.765 232.209 129.653 230.923 131.066C229.638 132.478 229.019 134.298 229.204 136.127C229.389 137.956 230.361 139.642 231.908 140.816C236.755 144.495 244.329 150.875 241.602 165.27C241.602 183.5 251.873 174.404 251.903 181.436V218.474C251.903 220.308 251.105 222.067 249.685 223.364C248.264 224.661 246.338 225.389 244.329 225.389C242.32 225.389 240.394 224.661 238.974 223.364C237.553 222.067 236.755 220.308 236.755 218.474V189.084C236.74 184.627 235.736 180.219 233.804 176.126C231.871 172.033 229.05 168.34 225.511 165.27C221.972 162.2 217.788 159.817 213.212 158.264C208.636 156.712 203.762 156.022 198.886 156.237H183.057C181.048 156.237 179.122 156.965 177.702 158.262C176.281 159.559 175.483 161.318 175.483 163.152C175.483 164.986 176.281 166.745 177.702 168.042C179.122 169.339 181.048 170.067 183.057 170.067H198.886C201.767 169.869 204.661 170.211 207.391 171.074C210.121 171.937 212.628 173.302 214.757 175.084C216.886 176.866 218.593 179.028 219.771 181.436C220.949 183.844 221.575 186.447 221.608 189.084V218.474C221.608 223.976 224.002 229.253 228.263 233.143C232.524 237.034 238.303 239.22 244.329 239.22C250.355 239.22 256.134 237.034 260.395 233.143C264.657 229.253 267.05 223.976 267.05 218.474V176.983C267.01 167.922 264.696 158.991 260.284 150.875C255.873 142.759 249.482 135.675 241.602 130.167Z" fill="#676767"/>
<path d="M188 98.5H119C114.817 98.5 108 103 108 114V246.135C108 249.954 111.391 253.05 115.574 253.05H191.312C195.494 253.05 198.885 249.954 198.885 246.135V114C198.885 100.915 192.183 98.5 188 98.5Z" fill="white"/>
<path d="M199 126H108V142H199V126Z" fill="#273273"/>
<defs>
<filter id="filter0_f_727_167" x="114.333" y="375.762" width="115.333" height="43.762" filterUnits="userSpaceOnUse" color-interpolation-filters="sRGB">
<feFlood flood-opacity="0" result="BackgroundImageFix"/>
<feBlend mode="normal" in="SourceGraphic" in2="BackgroundImageFix" result="shape"/>
<feGaussianBlur stdDeviation="1" result="effect1_foregroundBlur_727_167"/>
</filter>
<filter id="filter1_d_727_167" x="0" y="0" width="344" height="407.619" filterUnits="userSpaceOnUse" color-interpolation-filters="sRGB">
<feFlood flood-opacity="0" result="BackgroundImageFix"/>
<feColorMatrix in="SourceAlpha" type="matrix" values="0 0 0 0 0 0 0 0 0 0 0 0 0 0 0 0 0 0 127 0" result="hardAlpha"/>
<feOffset dy="1"/>
<feGaussianBlur stdDeviation="2.5"/>
<feComposite in2="hardAlpha" operator="out"/>
<feColorMatrix type="matrix" values="0 0 0 0 0 0 0 0 0 0 0 0 0 0 0 0 0 0 0.1 0"/>
<feBlend mode="normal" in2="BackgroundImageFix" result="effect1_dropShadow_727_167"/>
<feBlend mode="normal" in="SourceGraphic" in2="effect1_dropShadow_727_167" result="shape"/>
</filter>
</defs>
</svg>
