<svg width="35" height="36" viewBox="0 0 35 36" fill="none" xmlns="http://www.w3.org/2000/svg">
<path d="M17.5 3.6001C9.7685 3.6001 3.5 10.0477 3.5 18.0001C3.5 25.9525 9.7685 32.4001 17.5 32.4001C25.2315 32.4001 31.5 25.9525 31.5 18.0001C31.5 10.0477 25.2315 3.6001 17.5 3.6001ZM24.5 19.2001H18.6667V25.2001C18.6667 25.8637 18.144 26.4001 17.5 26.4001C16.856 26.4001 16.3333 25.8637 16.3333 25.2001V19.2001H10.5C9.856 19.2001 9.33333 18.6637 9.33333 18.0001C9.33333 17.3365 9.856 16.8001 10.5 16.8001H16.3333V10.8001C16.3333 10.1365 16.856 9.6001 17.5 9.6001C18.144 9.6001 18.6667 10.1365 18.6667 10.8001V16.8001H24.5C25.144 16.8001 25.6667 17.3365 25.6667 18.0001C25.6667 18.6637 25.144 19.2001 24.5 19.2001Z" fill="white"/>
</svg>
