<svg width="344" height="420" viewBox="0 0 344 420" fill="none" xmlns="http://www.w3.org/2000/svg">
<g filter="url(#filter0_f_727_91)">
<ellipse cx="172" cy="398.119" rx="55.6667" ry="19.881" fill="black" fill-opacity="0.15"/>
</g>
<g filter="url(#filter1_d_727_91)">
<path fill-rule="evenodd" clip-rule="evenodd" d="M172 4.47607C264.232 4.47607 339 79.2445 339 171.476C339 242.193 295.045 302.644 232.966 326.998L181.512 397.329C180.439 398.801 179.015 400.003 177.359 400.832C175.704 401.662 173.866 402.095 172 402.095C170.134 402.095 168.296 401.662 166.641 400.832C164.985 400.003 163.561 398.801 162.488 397.329L111.034 326.998C48.9548 302.644 5 242.193 5 171.476C5 79.2445 79.7685 4.47607 172 4.47607Z" fill="#4E64A6"/>
</g>
<path d="M307.191 171.476C307.191 96.8125 246.664 36.2856 172 36.2856C97.3364 36.2856 36.8096 96.8125 36.8096 171.476C36.8096 246.14 97.3364 306.667 172 306.667C246.664 306.667 307.191 246.14 307.191 171.476Z" fill="#273273"/>
<g clip-path="url(#clip0_727_91)">
<path d="M212.16 244.306H223.161C228.727 244.306 233.3 240.065 233.963 234.631L244.897 125.418H211.762V98.5791H198.707V125.418H165.771L167.759 140.926C179.091 144.04 189.694 149.673 196.056 155.903C205.599 165.313 212.16 175.055 212.16 190.959V244.306ZM99.1035 237.68V231.119H198.707V237.68C198.707 241.324 195.725 244.306 192.014 244.306H105.797C102.086 244.306 99.1035 241.324 99.1035 237.68ZM198.707 191.291C198.707 138.275 99.1035 138.275 99.1035 191.291H198.707ZM99.2361 204.611H198.641V217.865H99.2361V204.611Z" fill="white"/>
</g>
<defs>
<filter id="filter0_f_727_91" x="114.333" y="376.238" width="115.333" height="43.762" filterUnits="userSpaceOnUse" color-interpolation-filters="sRGB">
<feFlood flood-opacity="0" result="BackgroundImageFix"/>
<feBlend mode="normal" in="SourceGraphic" in2="BackgroundImageFix" result="shape"/>
<feGaussianBlur stdDeviation="1" result="effect1_foregroundBlur_727_91"/>
</filter>
<filter id="filter1_d_727_91" x="0" y="0.476074" width="344" height="407.619" filterUnits="userSpaceOnUse" color-interpolation-filters="sRGB">
<feFlood flood-opacity="0" result="BackgroundImageFix"/>
<feColorMatrix in="SourceAlpha" type="matrix" values="0 0 0 0 0 0 0 0 0 0 0 0 0 0 0 0 0 0 127 0" result="hardAlpha"/>
<feOffset dy="1"/>
<feGaussianBlur stdDeviation="2.5"/>
<feComposite in2="hardAlpha" operator="out"/>
<feColorMatrix type="matrix" values="0 0 0 0 0 0 0 0 0 0 0 0 0 0 0 0 0 0 0.1 0"/>
<feBlend mode="normal" in2="BackgroundImageFix" result="effect1_dropShadow_727_91"/>
<feBlend mode="normal" in="SourceGraphic" in2="effect1_dropShadow_727_91" result="shape"/>
</filter>
<clipPath id="clip0_727_91">
<rect width="159.048" height="159.048" fill="white" transform="translate(92.4766 91.9521)"/>
</clipPath>
</defs>
</svg>
