<svg width="344" height="420" viewBox="0 0 344 420" fill="none" xmlns="http://www.w3.org/2000/svg">
<g filter="url(#filter0_f_727_155)">
<ellipse cx="172" cy="397.643" rx="55.6667" ry="19.881" fill="black" fill-opacity="0.15"/>
</g>
<g filter="url(#filter1_d_727_155)">
<path fill-rule="evenodd" clip-rule="evenodd" d="M172 4C264.232 4 339 78.7685 339 171C339 241.717 295.045 302.168 232.966 326.522L181.512 396.853C180.439 398.325 179.015 399.527 177.359 400.356C175.704 401.186 173.866 401.619 172 401.619C170.134 401.619 168.296 401.186 166.641 400.356C164.985 399.527 163.561 398.325 162.488 396.853L111.034 326.522C48.9548 302.168 5 241.717 5 171C5 78.7685 79.7685 4 172 4Z" fill="#4E64A6"/>
</g>
<path d="M307.191 171C307.191 96.3364 246.664 35.8096 172 35.8096C97.3364 35.8096 36.8096 96.3364 36.8096 171C36.8096 245.664 97.3364 306.191 172 306.191C246.664 306.191 307.191 245.664 307.191 171Z" fill="#273273"/>
<path fill-rule="evenodd" clip-rule="evenodd" d="M147.434 234.088C147.31 239.396 142.923 243.607 137.614 243.516C132.305 243.425 128.066 239.066 128.124 233.757C128.181 228.448 132.515 224.181 137.824 224.206C143.202 224.293 147.497 228.71 147.434 234.088Z" fill="white" stroke="white" stroke-width="9" stroke-linecap="round" stroke-linejoin="round"/>
<path fill-rule="evenodd" clip-rule="evenodd" d="M198.918 234.088C198.794 239.389 194.417 243.599 189.114 243.517C183.812 243.435 179.567 239.091 179.608 233.788C179.648 228.485 183.958 224.207 189.262 224.206C191.853 224.235 194.326 225.293 196.137 227.147C197.948 229 198.948 231.497 198.918 234.088Z" fill="white" stroke="white" stroke-width="9" stroke-linecap="round" stroke-linejoin="round"/>
<path fill-rule="evenodd" clip-rule="evenodd" d="M234.11 138.561H140.996L134.558 191.265C134.518 194.72 135.852 198.049 138.267 200.52C140.682 202.991 143.979 204.402 147.434 204.441H204.509C209.065 204.423 213.269 201.986 215.549 198.041L245.122 158.513C247.538 154.487 247.629 149.479 245.36 145.367C243.091 141.256 238.805 138.663 234.11 138.561V138.561Z" fill="white" stroke="white" stroke-width="9" stroke-linecap="round" stroke-linejoin="round"/>
<path d="M136.626 139.629C137.216 142.043 139.651 143.522 142.065 142.933C144.48 142.343 145.959 139.908 145.369 137.494L136.626 139.629ZM134.833 113.32L139.204 112.252L139.203 112.246L134.833 113.32ZM133.421 112.209L133.436 107.709C133.431 107.709 133.426 107.709 133.421 107.709V112.209ZM108.818 107.709C106.333 107.709 104.318 109.724 104.318 112.209C104.318 114.695 106.333 116.709 108.818 116.709V107.709ZM113.947 153.31C116.432 153.31 118.447 151.296 118.447 148.81C118.447 146.325 116.432 144.31 113.947 144.31V153.31ZM87 144.31C84.5147 144.31 82.5 146.325 82.5 148.81C82.5 151.296 84.5147 153.31 87 153.31V144.31ZM113.956 175.267C116.441 175.267 118.456 173.253 118.456 170.767C118.456 168.282 116.441 166.267 113.956 166.267V175.267ZM105.184 166.267C102.698 166.267 100.684 168.282 100.684 170.767C100.684 173.253 102.698 175.267 105.184 175.267V166.267ZM145.369 137.494L139.204 112.252L130.461 114.387L136.626 139.629L145.369 137.494ZM139.203 112.246C138.55 109.589 136.172 107.718 133.436 107.709L133.406 116.709C132.01 116.705 130.796 115.75 130.463 114.394L139.203 112.246ZM133.421 107.709H108.818V116.709H133.421V107.709ZM113.947 144.31H87V153.31H113.947V144.31ZM113.956 166.267H105.184V175.267H113.956V166.267Z" fill="white"/>
<defs>
<filter id="filter0_f_727_155" x="114.333" y="375.762" width="115.333" height="43.762" filterUnits="userSpaceOnUse" color-interpolation-filters="sRGB">
<feFlood flood-opacity="0" result="BackgroundImageFix"/>
<feBlend mode="normal" in="SourceGraphic" in2="BackgroundImageFix" result="shape"/>
<feGaussianBlur stdDeviation="1" result="effect1_foregroundBlur_727_155"/>
</filter>
<filter id="filter1_d_727_155" x="0" y="0" width="344" height="407.619" filterUnits="userSpaceOnUse" color-interpolation-filters="sRGB">
<feFlood flood-opacity="0" result="BackgroundImageFix"/>
<feColorMatrix in="SourceAlpha" type="matrix" values="0 0 0 0 0 0 0 0 0 0 0 0 0 0 0 0 0 0 127 0" result="hardAlpha"/>
<feOffset dy="1"/>
<feGaussianBlur stdDeviation="2.5"/>
<feComposite in2="hardAlpha" operator="out"/>
<feColorMatrix type="matrix" values="0 0 0 0 0 0 0 0 0 0 0 0 0 0 0 0 0 0 0.1 0"/>
<feBlend mode="normal" in2="BackgroundImageFix" result="effect1_dropShadow_727_155"/>
<feBlend mode="normal" in="SourceGraphic" in2="effect1_dropShadow_727_155" result="shape"/>
</filter>
</defs>
</svg>
