<svg width="344" height="420" viewBox="0 0 344 420" fill="none" xmlns="http://www.w3.org/2000/svg">
<g filter="url(#filter0_f_755_24)">
<ellipse cx="172" cy="397.643" rx="55.6667" ry="19.881" fill="black" fill-opacity="0.15"/>
</g>
<g filter="url(#filter1_d_755_24)">
<path fill-rule="evenodd" clip-rule="evenodd" d="M172 4C264.232 4 339 78.7685 339 171C339 241.717 295.045 302.168 232.966 326.522L181.512 396.853C180.439 398.325 179.015 399.527 177.359 400.356C175.704 401.186 173.866 401.619 172 401.619C170.134 401.619 168.296 401.186 166.641 400.356C164.985 399.527 163.561 398.325 162.488 396.853L111.034 326.522C48.9548 302.168 5 241.717 5 171C5 78.7685 79.7685 4 172 4Z" fill="#4E64A6"/>
</g>
<path d="M307.191 171C307.191 96.3364 246.664 35.8096 172 35.8096C97.3364 35.8096 36.8096 96.3364 36.8096 171C36.8096 245.664 97.3364 306.191 172 306.191C246.664 306.191 307.191 245.664 307.191 171Z" fill="#273273"/>
<path d="M171.75 140.203C154.948 140.203 141.203 153.949 141.203 170.75C141.203 187.552 154.948 201.297 171.75 201.297C188.553 201.297 202.296 187.552 202.296 170.75C202.296 153.949 188.553 140.203 171.75 140.203ZM244.657 162.604C240.989 128.8 213.7 101.511 179.896 97.8453V85.2188H163.604V97.8449C129.8 101.51 102.511 128.8 98.8434 162.604H86.2188V178.896H98.843C102.51 212.7 129.799 239.989 163.604 243.657V256.281H179.895V243.657C213.7 239.99 240.989 212.7 244.657 178.896H257.281V162.604H244.657ZM171.75 227.771C140.387 227.771 114.729 202.112 114.729 170.75C114.729 139.388 140.387 113.729 171.75 113.729C203.112 113.729 228.77 139.388 228.77 170.75C228.77 202.112 203.112 227.771 171.75 227.771Z" fill="white"/>
<defs>
<filter id="filter0_f_755_24" x="114.333" y="375.762" width="115.333" height="43.762" filterUnits="userSpaceOnUse" color-interpolation-filters="sRGB">
<feFlood flood-opacity="0" result="BackgroundImageFix"/>
<feBlend mode="normal" in="SourceGraphic" in2="BackgroundImageFix" result="shape"/>
<feGaussianBlur stdDeviation="1" result="effect1_foregroundBlur_755_24"/>
</filter>
<filter id="filter1_d_755_24" x="0" y="0" width="344" height="407.619" filterUnits="userSpaceOnUse" color-interpolation-filters="sRGB">
<feFlood flood-opacity="0" result="BackgroundImageFix"/>
<feColorMatrix in="SourceAlpha" type="matrix" values="0 0 0 0 0 0 0 0 0 0 0 0 0 0 0 0 0 0 127 0" result="hardAlpha"/>
<feOffset dy="1"/>
<feGaussianBlur stdDeviation="2.5"/>
<feComposite in2="hardAlpha" operator="out"/>
<feColorMatrix type="matrix" values="0 0 0 0 0 0 0 0 0 0 0 0 0 0 0 0 0 0 0.1 0"/>
<feBlend mode="normal" in2="BackgroundImageFix" result="effect1_dropShadow_755_24"/>
<feBlend mode="normal" in="SourceGraphic" in2="effect1_dropShadow_755_24" result="shape"/>
</filter>
</defs>
</svg>
